<svg xmlns="http://www.w3.org/2000/svg"
shape-rendering="geometricPrecision"
width="4000" height="4000" viewBox="0 0 660 660"><rect width="100%" height="100%" fill="#FFFFFF" />
  <metadata>null</metadata>

<path d="
M 82.157 302.964
C 82.091 304.414 81.862 306.542 82.489 307.876
C 74.439 308.309 66.186 307.781 58.115 307.726
C 54.716 307.703 50.352 307.033 47.132 308.295
C 43.472 309.728 41.543 312.248 39.268 315.238
C 39.403 315.824 40.347 315.44 40.773 315.368
C 42.462 315.081 44.288 315.281 45.997 315.29
C 53.499 315.33 60.999 315.35 68.501 315.355
C 90.833 315.372 113.166 315.34 135.498 315.405
C 142.499 315.426 149.499 315.404 156.499 315.408
C 158.481 315.409 160.513 315.275 162.49 315.423
C 163.504 315.499 164.563 315.765 165.572 315.494
C 168.609 317.584 169.814 320.764 172.055 323.423
C 171.217 322.843 167.693 321.467 166.933 322.511
C 166.489 320.462 161.306 321.306 159.499 321.308
C 151.832 321.316 144.166 321.335 136.499 321.342
C 114.999 321.363 93.499 321.362 71.999 321.333
C 60.35 321.317 48.582 320.806 36.946 321.347
C 36.398 324.502 36.103 327.536 36.162 330.751
C 36.182 331.826 36.803 333.762 36.17 334.706
C 35.672 334.611 35.689 333.351 35.712 332.967
C 35.531 331.261 32.292 332.283 31.104 332.215
C 30.947 328.195 30.545 323.932 31.325 319.959
C 32.818 312.354 38.35 304.916 46.06 302.863
C 51.811 301.331 58.593 302.194 64.499 302.161
C 68.801 302.137 73.105 302.014 77.408 302.054
C 79.029 302.069 81.1 301.628 82.157 302.964 Z"
opacity="1" fill="rgb(123,191,241)" fill-rule="evenodd" />
<path d="
M 62.517 379.343
C 61.788 380.726 62.009 383.065 62.252 384.592
C 61.431 385.536 59.538 384.988 58.378 384.96
C 54.956 384.879 51.508 385.047 48.081 385.077
C 45.079 385.103 41.619 385.549 38.714 384.596
C 35.415 383.513 32.099 380.571 31.092 377.179
C 30.292 374.488 30.599 371.278 30.59 368.5
C 30.577 364.498 30.616 360.497 30.654 356.496
C 30.689 352.756 30.738 349.015 30.738 345.275
C 30.738 343.442 30.464 341.268 31.011 339.5
C 32.467 339.266 34.118 339.1 35.579 339.363
C 35.902 348.861 35.578 358.416 35.706 367.923
C 35.755 371.54 34.997 376.241 38.612 378.429
C 40.714 379.701 43.655 379.273 46.003 379.275
C 51.287 379.282 57.319 378.471 62.517 379.343 Z"
opacity="1" fill="rgb(117,188,239)" fill-rule="evenodd" />
<path d="
M 87.484 302.073
C 85.975 302.088 84.47 302.055 82.963 302.124
C 81.297 300.738 82.447 297.63 81.866 295.642
C 75.968 290.235 70.336 284.496 64.661 278.848
C 61.88 276.08 59.347 272.407 56.044 270.257
C 54.55 271.14 53.367 272.497 51.897 273.436
C 49.641 274.877 47.076 275.37 44.418 275.291
C 33.659 274.971 28.865 263.118 33.728 254.33
C 38.405 245.877 51.118 246.177 56.397 253.776
C 58.496 256.8 58.905 260.002 58.664 263.588
C 58.597 264.589 58.184 265.559 58.211 266.556
C 61.104 268.062 63.315 270.539 65.632 272.771
C 69.016 276.03 72.505 279.164 75.803 282.513
C 77.618 284.355 79.663 286.748 81.856 288.123
C 81.699 283.765 81.947 279.359 81.943 274.993
C 81.941 272.985 81.525 270.403 82.325 268.532
C 82.672 268.199 82.984 267.907 83.446 267.741
C 87.425 266.311 87.616 270.988 87.65 273.498
C 87.727 279.11 87.454 284.716 87.458 290.321
C 87.46 294.146 87.904 298.296 87.484 302.073 Z
M 37.398 260.597
C 37.23 261.85 37.295 263.125 37.657 264.341
C 40.13 272.642 52.513 270.976 53.53 262.673
C 54.565 254.23 43.487 250.159 38.702 257.102
C 38.009 258.107 37.561 259.386 37.398 260.597 Z"
opacity="1" fill="rgb(123,191,241)" fill-rule="evenodd" />
<path d="
M 40.846 340.273
C 45.897 340.375 50.953 340.226 56.006 340.281
C 57.873 340.302 60.693 339.797 62.415 340.461
C 62.446 342.883 62.18 345.376 62.373 347.79
C 55.328 347.526 48.23 347.708 41.184 347.736
C 40.801 345.29 41.075 342.745 40.846 340.273 Z"
opacity="1" fill="rgb(24,34,69)" fill-rule="evenodd" />
<path d="
M 41.239 328.235
C 43.054 328.076 44.846 328.092 46.666 328.121
C 47.512 329.837 46.944 333.375 46.908 335.308
C 45.279 335.288 42.536 335.862 41.092 335.17
C 41.022 332.855 41.175 330.547 41.239 328.235 Z"
opacity="1" fill="rgb(17,31,67)" fill-rule="evenodd" />
<path d="
M 41.264 352.723
C 44.282 352.377 47.468 352.67 50.507 352.678
C 54.395 352.688 58.39 352.468 62.263 352.809
C 62.724 355.195 62.149 357.9 62.335 360.333
C 55.496 359.869 48.273 360.057 41.433 360.445
C 40.528 358.547 41.223 354.821 41.264 352.723 Z"
opacity="1" fill="rgb(31,41,77)" fill-rule="evenodd" />
<path d="
M 41.311 365.375
C 43.764 365.405 46.224 365.26 48.678 365.242
C 49.477 366.98 48.742 370.635 48.842 372.59
C 46.638 372.742 43.322 373.127 41.186 372.675
C 41.195 370.279 41.003 367.75 41.311 365.375 Z"
opacity="1" fill="rgb(27,39,71)" fill-rule="evenodd" />
<path d="
M 52.231 328.211
C 55.359 327.356 59.228 327.872 62.461 327.895
C 62.222 330.344 62.363 332.9 62.368 335.36
C 59.241 335.165 55.133 336.096 52.163 335.19
C 52.096 332.874 52.116 330.525 52.231 328.211 Z"
opacity="1" fill="rgb(25,32,67)" fill-rule="evenodd" />
<path d="
M 54.3 365.358
C 56.204 365.378 58.129 365.289 60.035 365.219
C 60.749 365.193 61.845 364.971 62.42 365.394
C 62.277 367.682 62.242 370.162 62.403 372.448
C 59.733 372.547 56.904 372.721 54.248 372.608
C 54.245 370.191 54.168 367.774 54.3 365.358 Z"
opacity="1" fill="rgb(31,38,69)" fill-rule="evenodd" />
<path d="
M 62.517 379.343
C 88.002 379.11 113.513 379.132 139.001 379.201
C 145.168 379.217 151.335 379.246 157.502 379.249
C 160.449 379.25 163.638 379.455 165.723 376.971
C 168.718 373.402 167.314 366.343 167.329 361.995
C 167.373 348.885 167.747 335.584 166.933 322.511
C 167.693 321.467 171.217 322.843 172.055 323.423
C 172.56 323.909 172.336 324.003 172.653 324.522
C 173.052 338.316 172.817 352.162 172.806 365.962
C 172.801 371.841 173.69 378.558 168.255 382.51
C 164.015 385.593 158.969 385.156 154.005 385.131
C 146.614 385.093 139.217 385.174 131.831 385.282
C 129.375 385.343 125.851 384.16 123.418 385.358
C 121.578 384.535 116.429 384.57 114.627 385.428
C 120.539 391.043 126.202 396.925 131.798 402.854
C 134.118 405.312 138.044 408.237 139.093 411.537
C 139.195 412.671 138.185 413.802 137.319 414.407
C 134.364 415.377 132.146 411.534 130.425 409.66
C 124.823 403.56 119.158 397.448 113.284 391.608
C 111.621 389.955 109.899 388.357 108.251 386.69
C 107.596 386.027 107.04 384.908 105.993 385.321
C 104.427 384.968 102.502 385.033 100.911 385.204
C 91.413 385.835 81.546 384.933 71.999 384.934
C 69.666 384.934 67.334 385.044 65.002 385.028
C 64.085 385.022 62.925 385.284 62.252 384.592
C 62.009 383.065 61.788 380.726 62.517 379.343 Z"
opacity="1" fill="rgb(65,197,57)" fill-rule="evenodd" />
<path d="
M 67.532 353.614
C 67.54 353.03 67.463 353.34 67.91 352.733
C 71.2 352.844 74.728 352.342 77.985 352.889
C 77.841 355.249 77.952 357.676 77.996 360.03
C 74.666 360.558 71.048 360.189 67.683 360.148
C 67.605 357.98 67.463 355.783 67.532 353.614 Z"
opacity="1" fill="rgb(29,37,77)" fill-rule="evenodd" />
<path d="
M 67.862 328.413
C 68.749 327.834 69.952 328.015 71.004 328.015
C 73.362 328.015 75.756 328.106 78.107 327.996
C 78.173 329.813 78.153 331.632 78.184 333.452
C 78.189 333.725 78.37 335.258 78.097 335.413
C 74.753 335.179 71.351 335.293 68.005 335.362
C 67.553 334.946 67.737 334.102 67.752 333.505
C 67.796 331.808 67.821 330.11 67.862 328.413 Z"
opacity="1" fill="rgb(25,30,65)" fill-rule="evenodd" />
<path d="
M 67.73 340.268
C 71.171 340.447 74.667 340.403 78.114 340.356
C 78.533 342.076 78.094 344.174 78.158 345.954
C 78.168 346.255 78.361 347.752 78.026 347.897
C 74.688 347.765 70.933 348.299 67.662 347.7
C 67.701 345.225 67.595 342.739 67.73 340.268 Z"
opacity="1" fill="rgb(29,35,71)" fill-rule="evenodd" />
<path d="
M 67.722 365.25
C 87.041 365.669 106.401 364.538 125.724 365.165
C 125.642 366.931 125.705 368.723 125.718 370.493
C 125.72 370.81 125.846 372.259 125.601 372.418
C 116.775 371.883 107.719 372.517 98.871 372.544
C 88.583 372.575 78.133 371.982 67.869 372.495
C 67.239 370.308 67.736 367.515 67.722 365.25 Z"
opacity="1" fill="rgb(24,36,68)" fill-rule="evenodd" />
<path d="
M 78.863 252.546
C 81.053 245.419 92.518 248.328 90.507 255.405
C 88.534 262.348 76.682 259.643 78.863 252.546 Z"
opacity="1" fill="rgb(18,30,74)" fill-rule="evenodd" />
<path d="
M 82.963 302.124
C 84.47 302.055 85.975 302.088 87.484 302.073
C 96.291 302.014 105.192 302.307 113.99 302.061
C 115.323 302.021 116.657 302.095 117.989 302.118
C 120.954 302.094 123.915 302.106 126.88 302.134
C 128.267 302.147 130.046 302.437 131.368 301.964
C 133.244 302.883 136.413 302.038 138.473 302.123
C 149.085 302.193 161.9 299.261 168.722 309.624
C 169.973 311.525 170.855 313.648 171.549 315.809
C 172.459 318.641 172.468 321.581 172.653 324.522
C 172.336 324.003 172.56 323.909 172.055 323.423
C 169.814 320.764 168.609 317.584 165.572 315.494
C 163.946 313.335 162.89 310.984 160.52 309.47
C 157.583 307.594 154.228 307.67 150.868 307.697
C 146.578 307.733 142.29 307.799 138 307.815
C 125.999 307.862 113.998 307.877 101.998 307.901
C 95.533 307.915 88.941 308.256 82.489 307.876
C 81.862 306.542 82.091 304.414 82.157 302.964
C 82.513 302.249 82.249 302.534 82.963 302.124 Z"
opacity="1" fill="rgb(23,34,70)" fill-rule="evenodd" />
<path d="
M 83.479 329.095
C 83.606 328.396 83.462 328.769 84.072 328.052
C 87.379 328.072 90.693 327.783 93.998 327.991
C 93.952 329.791 94.133 331.633 94.131 333.449
C 94.131 333.652 94.27 335.254 94.069 335.341
C 91.532 335.25 88.996 335.277 86.458 335.265
C 85.696 335.261 84.007 335.539 83.45 335.002
C 83.367 333.051 83.282 331.042 83.479 329.095 Z"
opacity="1" fill="rgb(29,35,69)" fill-rule="evenodd" />
<path d="
M 83.423 341.07
C 83.518 340.878 83.612 340.687 83.706 340.496
C 87.138 340.327 90.568 340.347 94.006 340.374
C 94.076 342.676 94.457 345.649 94.031 347.886
C 90.585 347.594 86.935 347.661 83.485 347.858
C 82.711 346.332 83.258 342.767 83.423 341.07 Z"
opacity="1" fill="rgb(28,34,71)" fill-rule="evenodd" />
<path d="
M 83.392 353.552
C 83.48 353.377 83.568 353.201 83.655 353.026
C 97.566 352.444 111.793 352.557 125.702 353.101
C 125.647 355.344 125.299 358.006 125.742 360.209
C 122.502 359.437 118.325 360.148 114.996 360.174
C 107.831 360.23 100.666 360.238 93.501 360.236
C 90.502 360.235 86.322 360.967 83.464 360.057
C 83.407 357.896 83.194 355.716 83.392 353.552 Z"
opacity="1" fill="rgb(28,39,76)" fill-rule="evenodd" />
<path d="
M 90.377 414.579
C 92.416 404.564 104.819 400.823 112.517 407.233
C 116.574 410.611 117.684 416.446 116.618 421.409
C 114.862 429.583 104.887 433.847 97.645 430.135
C 91.948 427.215 89.107 420.817 90.377 414.579 Z
M 95.875 415.054
C 94.746 418.596 96.337 423.148 99.599 425.004
C 103.682 427.326 109.713 425.398 111.231 420.813
C 112.57 416.77 110.849 411.907 106.89 410.056
C 102.462 407.986 97.32 410.519 95.875 415.054 Z"
opacity="1" fill="rgb(127,193,243)" fill-rule="evenodd" />
<path d="
M 97.391 231.009
C 99.195 228.799 102.188 229.729 102.513 232.548
C 103.077 237.444 102.671 242.651 102.712 247.581
C 102.802 258.22 102.772 268.86 102.788 279.499
C 102.794 282.833 102.777 286.167 102.779 289.5
C 102.781 291.636 102.829 293.756 100.88 295.097
C 99.136 295.68 97.627 294.238 97.318 292.59
C 96.629 288.92 97.172 284.724 97.17 280.997
C 97.161 269.163 97.04 257.329 97.078 245.495
C 97.088 242.162 97.081 238.829 97.091 235.496
C 97.095 234.044 96.811 232.371 97.391 231.009 Z"
opacity="1" fill="rgb(127,191,241)" fill-rule="evenodd" />
<path d="
M 99.435 328.458
C 99.537 328.338 99.639 328.218 99.742 328.097
C 103.085 328.007 106.449 328.089 109.779 327.973
C 110.059 330.214 110.222 333.057 109.9 335.293
C 107.433 335.296 104.963 335.26 102.495 335.237
C 101.503 335.228 100.193 335.472 99.26 335.147
C 99.259 332.921 99.262 330.678 99.435 328.458 Z"
opacity="1" fill="rgb(25,31,66)" fill-rule="evenodd" />
<path d="
M 99.359 340.429
C 101.769 340.39 104.177 340.313 106.59 340.305
C 107.637 340.301 108.928 340.032 109.92 340.388
C 109.76 342.703 109.45 345.634 109.876 347.908
C 107.281 347.678 104.606 347.81 101.999 347.778
C 101.202 347.768 99.924 348.082 99.259 347.642
C 99.197 345.262 99.11 342.798 99.359 340.429 Z"
opacity="1" fill="rgb(20,30,67)" fill-rule="evenodd" />
<path d="
M 100.911 385.204
C 102.502 385.033 104.427 384.968 105.993 385.321
C 104.978 388.992 107.907 394.087 104.929 397.279
C 103.49 398.821 101.024 398.254 100.499 396.174
C 99.957 394.02 100.361 391.369 100.422 389.167
C 100.459 387.821 100.297 386.43 100.911 385.204 Z"
opacity="1" fill="rgb(127,188,235)" fill-rule="evenodd" />
<path d="
M 110.401 251.546
C 112.733 245.832 121.31 249.365 118.655 255.104
C 116.427 259.921 108.341 256.595 110.401 251.546 Z"
opacity="1" fill="rgb(117,189,243)" fill-rule="evenodd" />
<path d="
M 117.639 277.897
C 117.341 280.231 118.702 283.305 117.754 285.488
C 117.283 288.52 117.757 291.924 117.746 294.999
C 117.738 297.315 117.35 299.893 117.989 302.118
C 116.657 302.095 115.323 302.021 113.99 302.061
C 113.352 301.789 112.864 301.636 112.443 301.052
C 112.003 298.269 112.254 295.311 112.236 292.5
C 112.202 287 112.195 281.5 112.177 275.999
C 112.171 274 112.216 272.001 112.204 270.002
C 112.198 268.92 112.046 267.87 112.724 266.949
C 114 265.215 116.846 265.583 117.524 267.704
C 118.236 269.931 117.437 272.715 117.441 275.01
C 117.443 275.974 117.938 277.005 117.639 277.897 Z"
opacity="1" fill="rgb(134,198,241)" fill-rule="evenodd" />
<path d="
M 115.282 328.279
C 117.457 327.277 120.772 327.912 123.119 327.912
C 123.712 327.912 125.48 327.627 125.765 328.081
C 125.883 330.439 125.463 333.015 125.857 335.338
C 122.407 334.737 118.632 335.445 115.14 335.206
C 115.107 332.904 115.119 330.576 115.282 328.279 Z"
opacity="1" fill="rgb(26,32,67)" fill-rule="evenodd" />
<path d="
M 115.399 340.393
C 118.825 340.426 122.256 340.272 125.683 340.308
C 126.357 342.598 125.361 345.425 125.75 347.796
C 122.438 347.499 118.291 348.636 115.124 347.687
C 115.056 345.382 115.012 343.066 115.123 340.762
C 115.215 340.639 115.307 340.516 115.399 340.393 Z"
opacity="1" fill="rgb(22,32,68)" fill-rule="evenodd" />
<path d="
M 117.639 277.897
C 119.212 275.529 121.452 273.47 123.454 271.46
C 126.368 268.535 129.255 265.55 132.405 262.878
C 132.033 262.184 130.916 261.485 130.398 260.796
C 128.892 258.792 128.098 256.52 127.991 254.022
C 127.88 251.444 128.312 248.878 129.492 246.566
C 130.312 244.959 131.397 243.283 132.848 242.18
C 134.41 240.994 136.159 240.086 138.065 239.607
C 148.444 236.996 157.214 247.04 154.66 257.002
C 154.143 259.018 153.039 260.908 151.677 262.466
C 150.186 264.17 148.278 265.447 146.149 266.215
C 142.507 267.53 139.562 266.168 136.01 266.186
C 130.527 273.069 123.346 278.669 117.754 285.488
C 118.702 283.305 117.341 280.231 117.639 277.897 Z
M 133.444 252.116
C 133.162 255.768 135.066 259.435 138.558 260.849
C 143.25 262.749 149.247 259.645 149.826 254.418
C 150.782 245.807 139.129 240.735 134.49 248.749
C 133.887 249.79 133.537 250.912 133.444 252.116 Z"
opacity="1" fill="rgb(68,193,59)" fill-rule="evenodd" />
<path d="
M 123.418 385.358
C 125.851 384.16 129.375 385.343 131.831 385.282
C 131.661 386.517 133.549 387.897 134.443 388.77
C 137.3 391.562 139.823 394.691 142.643 397.509
C 143.838 396.75 145.011 395.947 146.449 395.742
C 151.973 394.953 155.544 402.943 150.566 406.046
C 149.306 406.831 147.726 406.851 146.296 406.721
C 145.122 406.614 143.972 406.337 143.075 405.526
C 141.873 404.44 142.118 403.155 141.545 401.82
C 139.619 402.25 138.006 399.958 136.732 398.771
C 133.62 395.874 130.586 392.883 127.422 390.042
C 126.002 388.767 123.858 387.308 123.418 385.358 Z"
opacity="1" fill="rgb(124,191,243)" fill-rule="evenodd" />
<path d="
M 130.974 331.116
C 131.053 330.224 131.04 329.326 131.103 328.433
C 131.911 327.763 132.98 327.93 134.001 327.911
C 136.451 327.864 139.015 327.717 141.455 327.927
C 141.374 330.343 141.519 332.744 141.513 335.157
C 140.798 335.47 139.58 335.245 138.802 335.247
C 136.323 335.253 133.861 335.215 131.389 335.02
C 130.641 333.941 130.928 332.384 130.974 331.116 Z"
opacity="1" fill="rgb(25,33,69)" fill-rule="evenodd" />
<path d="
M 130.969 341.59
C 131.052 341.027 131.021 341.354 131.019 340.606
C 132.201 339.631 135.951 340.232 137.505 340.224
C 142.838 340.197 148.172 340.183 153.505 340.194
C 154.983 340.197 158.136 339.668 159.379 340.453
C 159.157 344.286 159.297 348.158 159.285 351.997
C 159.277 354.698 159.02 357.554 159.322 360.237
C 152.721 360.086 146.105 360.298 139.501 360.203
C 137.026 360.168 133.327 360.756 131.029 359.878
C 130.965 357.976 130.516 354.987 131.235 353.243
C 138.054 353.476 144.896 352.631 151.725 352.912
C 152.418 351.569 151.811 349.391 151.931 347.901
C 150.712 347.351 148.356 347.857 147.008 347.868
C 143.175 347.899 139.335 347.847 135.502 347.77
C 134.263 347.745 131.866 348.239 130.833 347.594
C 130.898 345.595 130.806 343.585 130.969 341.59 Z"
opacity="1" fill="rgb(21,33,71)" fill-rule="evenodd" />
<path d="
M 130.977 366.589
C 131.056 366.028 131.028 366.355 131.018 365.607
C 131.665 365.105 132.694 365.284 133.504 365.284
C 135.293 365.286 137.096 365.298 138.883 365.231
C 139.502 365.208 140.972 364.955 141.38 365.445
C 141.24 367.277 141.281 369.153 141.287 370.991
C 141.289 371.341 141.467 372.304 141.148 372.472
C 137.859 372.233 134.282 372.179 130.993 372.402
C 130.796 370.496 130.853 368.501 130.977 366.589 Z"
opacity="1" fill="rgb(27,37,73)" fill-rule="evenodd" />
<path d="
M 131.368 301.964
C 131.859 301.595 132.126 300.81 132.517 300.311
C 133.515 299.038 134.71 297.862 135.779 296.643
C 138.377 293.683 141.399 291.046 144.139 288.213
C 145.592 286.711 147.018 284.648 148.943 283.735
C 150.219 283.713 152.662 285.029 152.686 286.558
C 152.697 287.227 152.05 287.887 151.706 288.398
C 149.159 292.177 144.98 295.352 141.665 298.457
C 141.016 299.065 138.04 301.098 138.473 302.123
C 136.413 302.038 133.244 302.883 131.368 301.964 Z"
opacity="1" fill="rgb(64,210,54)" fill-rule="evenodd" />
<path d="
M 146.92 328.435
C 147.606 327.81 149.086 328.038 150.015 328.031
C 153.021 328.007 156.478 327.348 159.434 327.94
C 159.348 329.52 159.313 331.124 159.34 332.708
C 159.351 333.352 159.568 334.57 159.317 335.158
C 155.164 335.338 150.967 335.119 146.815 335.077
C 146.929 332.874 146.885 330.643 146.92 328.435 Z"
opacity="1" fill="rgb(27,34,73)" fill-rule="evenodd" />
<path d="
M 146.881 365.303
C 151.071 365.126 155.292 364.912 159.487 365.07
C 159.577 367.436 159.757 370.06 159.386 372.417
C 155.259 372.203 151.01 372.291 146.883 372.477
C 146.143 370.53 146.835 367.383 146.881 365.303 Z"
opacity="1" fill="rgb(21,30,65)" fill-rule="evenodd" />
<path d="
M 153.439 275.555
C 155.93 268.836 165.828 273.26 163.53 279.784
C 161.242 286.281 151.205 281.582 153.439 275.555 Z"
opacity="1" fill="rgb(67,197,61)" fill-rule="evenodd" />
<path d="
M 204.677 303.286
C 207.635 303.288 210.596 303.313 213.557 303.332
C 214.777 303.339 216.289 303.06 217.45 303.411
C 218.599 306.444 220.693 309.365 222.297 312.19
C 224.881 316.744 227.276 321.404 229.811 325.985
C 230.956 328.054 232.069 330.137 233.202 332.21
C 233.526 332.805 233.817 334.199 234.302 334.574
C 238.706 327.412 242.453 319.61 246.525 312.232
C 248.092 309.392 249.49 305.95 251.56 303.463
C 255.855 303.248 260.299 303.21 264.597 303.342
C 259.22 313.934 252.349 323.871 246.601 334.282
C 245.192 336.833 243.728 339.359 242.248 341.869
C 241.599 342.971 240.607 344.173 240.278 345.42
C 239.658 347.767 240.105 350.808 240.11 353.229
C 240.121 358.185 239.945 363.183 240.115 368.132
C 236.272 368.453 232.021 368.358 228.169 368.148
C 228.264 362.693 228.193 357.216 228.169 351.758
C 228.16 349.69 228.678 346.711 227.825 344.794
C 226.405 341.606 224.298 338.526 222.587 335.475
C 218.941 328.978 215.153 322.562 211.463 316.09
C 209.89 313.332 208.417 310.521 206.889 307.738
C 206.115 306.33 204.976 304.866 204.677 303.286 Z"
opacity="1" fill="rgb(24,36,72)" fill-rule="evenodd" />
<path d="
M 263.945 351.591
C 264.43 349.716 265.038 347.998 266.106 346.365
C 272.492 336.604 286.942 340.293 296.577 340.237
C 296.734 340.138 296.323 337.934 296.294 337.658
C 295.941 334.241 293.657 331.536 290.485 330.315
C 283.935 327.791 276.941 330.415 271.074 333.333
C 270.407 332.734 270.038 331.226 269.675 330.374
C 268.842 328.42 267.874 326.528 267.083 324.559
C 269.512 322.758 272.581 321.678 275.483 320.891
C 285.424 318.193 300.483 317.912 305.972 328.631
C 310.066 336.623 308.31 347.311 308.313 356
C 308.314 358.736 308.297 361.473 308.311 364.209
C 308.317 365.453 308.595 366.992 308.35 368.204
C 304.617 368.178 300.935 368.054 297.215 368.189
C 297.286 366.187 297.317 364.17 297.234 362.169
C 296.081 362.783 295.175 364.145 294.153 365.017
C 292.433 366.484 290.368 367.558 288.201 368.189
C 278.685 370.963 265.798 368.004 263.904 356.777
C 263.62 355.089 263.651 353.275 263.945 351.591 Z
M 275.486 353.629
C 275.529 360.812 284.585 361.87 289.856 360.011
C 295.781 357.922 297.058 353.027 296.425 347.268
C 289.628 346.988 276.79 344.03 275.486 353.629 Z"
opacity="1" fill="rgb(22,35,71)" fill-rule="evenodd" />
<path d="
M 320.398 300.314
C 321.615 299.885 323.203 300.137 324.484 300.145
C 327.071 300.16 329.664 300.09 332.25 300.141
C 331.817 305.34 332.244 310.778 332.242 316.003
C 332.237 325.354 332.049 334.704 331.971 344.053
C 331.944 347.211 331.981 350.357 332.06 353.507
C 332.102 355.161 332.158 357.043 333.683 358.072
C 334.989 358.952 337.005 358.252 338.474 358.307
C 338.473 361.426 339.562 364.469 339.599 367.524
C 332.937 369.712 324.015 370.085 321.187 361.995
C 320.217 359.219 320.347 356.214 320.353 353.317
C 320.361 349.71 320.363 346.104 320.359 342.497
C 320.34 328.453 320.753 314.35 320.398 300.314 Z"
opacity="1" fill="rgb(25,37,73)" fill-rule="evenodd" />
<path d="
M 348.166 300.21
C 351.955 300.378 355.793 300.017 359.575 300.264
C 359.958 305.113 359.627 310.131 359.646 315.001
C 359.685 325.168 359.715 335.336 359.802 345.503
C 359.827 348.502 359.762 351.522 359.967 354.516
C 360.055 355.799 360.301 357.294 361.505 358.012
C 362.445 358.572 363.614 358.316 364.632 358.201
C 365.38 358.118 365.957 358.092 366.657 357.788
C 366.82 359.914 366.883 362.025 367.176 364.142
C 367.307 365.093 367.859 366.314 367.724 367.253
C 361.884 368.824 354.587 371.037 350.243 364.929
C 346.608 359.818 348.103 351.946 348.099 346.004
C 348.088 330.757 347.803 315.448 348.166 300.21 Z"
opacity="1" fill="rgb(23,36,71)" fill-rule="evenodd" />
<path d="
M 372.945 351.086
C 373.505 349.313 374.048 347.573 375.16 346.046
C 380.124 339.227 389.967 339.418 397.484 340.118
C 399.928 340.346 402.843 341.025 405.276 340.754
C 405.142 338.819 405.306 337.023 404.567 335.171
C 401.542 327.589 390.251 328.991 384.201 331.23
C 382.664 331.799 381.155 332.929 379.6 333.336
C 378.647 330.226 377.206 327.304 375.957 324.308
C 379.547 321.963 384.008 320.725 388.185 319.94
C 391.616 319.294 395.131 319.119 398.607 319.491
C 401.045 319.753 403.442 320.24 405.724 321.153
C 414.997 324.866 416.868 333.541 416.858 342.504
C 416.847 350.884 416.121 359.608 416.912 367.949
C 414.412 368.518 411.081 367.983 408.504 367.936
C 407.624 367.92 406.155 368.377 405.379 368.047
C 405.542 366.185 405.711 364.03 405.463 362.179
C 404.528 362.491 403.512 364.368 402.727 365.081
C 401.064 366.59 398.825 367.593 396.694 368.233
C 387.002 371.142 373.956 367.325 372.741 355.837
C 372.575 354.273 372.611 352.625 372.945 351.086 Z
M 384.388 352.581
C 383.293 360.725 393.319 361.95 398.985 359.81
C 401.176 358.982 403.685 357.51 404.756 355.311
C 405.668 353.438 405.387 349.751 405.184 347.714
C 398.539 347.371 387.014 344.237 384.388 352.581 Z"
opacity="1" fill="rgb(22,34,69)" fill-rule="evenodd" />
<path d="
M 422.39 303.982
C 422.809 303.257 424.5 303.52 425.336 303.525
C 428.373 303.543 431.397 303.549 434.427 303.468
C 440.864 303.294 447.281 303.645 453.72 303.611
C 460.368 303.575 467.076 303.199 473.716 303.345
C 474.173 306.577 473.439 309.977 473.83 313.224
C 467.041 313.564 460.07 312.744 453.315 313.504
C 452.558 314.671 452.887 316.437 452.881 317.801
C 452.868 321.003 452.871 324.205 452.891 327.407
C 452.944 335.825 453.266 344.268 453.028 352.68
C 452.933 356.024 452.915 359.368 452.946 362.713
C 452.962 364.415 452.726 366.535 453.22 368.18
C 450.81 368.209 448.4 368.044 445.989 368.054
C 444.851 368.059 443.464 368.359 442.364 368.145
C 442.741 349.907 442.206 331.644 442.386 313.407
C 439.897 312.96 437.032 313.311 434.499 313.302
C 430.537 313.289 426.464 312.946 422.52 313.289
C 422.103 312.758 422.419 311.246 422.464 310.553
C 422.606 308.353 422.586 306.177 422.39 303.982 Z"
opacity="1" fill="rgb(83,202,70)" fill-rule="evenodd" />
<path d="
M 471.999 320.68
C 475.432 320.612 478.868 320.557 482.296 320.469
C 483.05 321.156 483.207 322.459 483.567 323.39
C 484.506 325.822 485.408 328.258 486.388 330.674
C 489.053 337.239 491.523 343.895 493.975 350.541
C 494.967 353.231 496.569 356.067 497.077 358.882
C 497.505 358.883 497.889 356.961 497.975 356.625
C 498.553 354.365 499.322 352.159 500.071 349.95
C 503.388 340.17 507.135 330.404 510.927 320.8
C 513.297 320.308 516.075 320.68 518.501 320.626
C 519.232 320.609 520.87 320.36 521.359 320.925
C 516.123 333.632 510.827 346.295 505.924 359.139
C 504.412 363.101 502.844 367.039 501.281 370.978
C 499.972 374.279 498.674 377.71 496.203 380.337
C 489.752 387.198 480.175 385.322 472.962 381.073
C 473.226 379.237 474.691 377.352 475.525 375.697
C 475.925 374.903 476.195 373.82 476.804 373.18
C 480.867 374.721 484.994 378.29 489.117 374.444
C 489.732 373.871 490.259 373.213 490.699 372.498
C 491.263 371.581 491.889 370.533 491.861 369.423
C 491.818 367.655 490.64 365.778 489.951 364.186
C 488.536 360.919 487.242 357.595 485.793 354.341
C 483.045 348.17 480.576 341.86 477.927 335.643
C 475.85 330.769 473.434 325.781 471.999 320.68 Z"
opacity="1" fill="rgb(77,198,66)" fill-rule="evenodd" />
<path d="
M 527.807 320.796
C 530.887 320.11 534.547 320.679 537.712 320.62
C 538.105 321.237 537.947 322.271 537.941 322.999
C 537.926 324.915 537.702 327.022 537.986 328.915
C 539.277 328.179 540.202 325.911 541.292 324.798
C 543.938 322.095 547.467 320.571 551.174 319.994
C 553.395 319.648 555.725 319.614 557.944 319.999
C 572.26 322.481 579.03 338.109 576.174 351.257
C 573.891 361.763 564.187 369.496 553.45 369.19
C 549.456 369.076 545.651 367.489 542.535 365.03
C 541.384 364.122 540.414 363.041 539.458 361.937
C 539.111 361.537 539.042 360.834 538.552 360.633
C 538.35 360.55 538.491 361.066 538.46 361.282
C 538.911 368.609 538.762 376.377 538.608 383.72
C 536.123 383.446 533.498 383.546 530.997 383.54
C 530.258 383.538 528.478 383.996 527.929 383.57
C 528.182 373.396 527.861 363.174 527.837 352.994
C 527.812 342.271 528.069 331.515 527.807 320.796 Z
M 538.422 341.086
C 537.395 346.59 538.78 353.291 543.156 357.054
C 548.192 361.386 556.479 361.333 561.457 356.896
C 563.882 354.734 565.377 351.426 565.985 348.284
C 567.104 342.508 565.67 335.909 561.087 331.923
C 552.485 324.442 540.331 330.849 538.422 341.086 Z"
opacity="1" fill="rgb(79,199,63)" fill-rule="evenodd" />
<path d="
M 583.428 340.085
C 584.734 334.74 586.65 329.916 590.77 326.07
C 599.692 317.742 615.015 317.614 623.51 326.603
C 627.249 330.56 629.178 335.895 629.629 341.256
C 629.808 343.383 629.213 346.181 629.794 348.193
C 617.88 348.696 605.872 347.59 593.977 348.362
C 593.407 349.265 594.098 350.854 594.543 351.814
C 595.931 354.807 598.053 357.281 600.992 358.825
C 606.105 361.51 612.797 361.269 617.659 358.072
C 618.948 357.224 619.931 355.911 621.021 354.842
C 622.2 355.45 623.143 356.829 624.121 357.725
C 625.126 358.646 626.511 359.361 627.33 360.449
C 624.375 365.803 617.112 368.226 611.484 368.893
C 603.776 369.806 595.258 367.388 589.646 361.85
C 584.311 356.586 582.039 347.34 583.428 340.085 Z
M 593.367 339.533
C 593.267 340.075 593.198 340.61 593.134 341.157
C 595.444 342.034 599.037 341.35 601.502 341.349
C 607.618 341.344 613.779 341.574 619.889 341.32
C 620.438 332.572 611.519 326.526 603.504 328.914
C 598.136 330.514 595.349 334.647 593.367 339.533 Z"
opacity="1" fill="rgb(82,196,68)" fill-rule="evenodd" />

</svg>